<?xml version="1.0" encoding="UTF-8"?> <svg xmlns="http://www.w3.org/2000/svg" width="48" height="49" viewBox="0 0 48 49" fill="none"><path d="M36 28.803V38.803C36 41.0121 34.2091 42.803 32 42.803H10C7.79086 42.803 6 41.0121 6 38.803V10.803C6 8.59384 7.79086 6.80298 10 6.80298H32C34.2091 6.80298 36 8.59384 36 10.803V16.803" stroke="#BCCF00" stroke-width="2" stroke-linecap="round" stroke-linejoin="round"></path><path d="M26 27.6309V32.8029H31.172C31.7024 32.8028 32.211 32.592 32.586 32.2169L40.758 24.0449C42.4141 22.3878 42.4141 19.7021 40.758 18.0449C39.1008 16.3888 36.4152 16.3888 34.758 18.0449L26.586 26.2169C26.2109 26.5919 26.0001 27.1005 26 27.6309Z" stroke="#BCCF00" stroke-width="2" stroke-linecap="round" stroke-linejoin="round"></path><path d="M14 24.803H20" stroke="#BCCF00" stroke-width="2" stroke-linecap="round" stroke-linejoin="round"></path><path d="M14 32.803H20" stroke="#BCCF00" stroke-width="2" stroke-linecap="round" stroke-linejoin="round"></path><path d="M14 16.803H28" stroke="#BCCF00" stroke-width="2" stroke-linecap="round" stroke-linejoin="round"></path></svg> 